<svg xmlns="http://www.w3.org/2000/svg">
  <symbol id="arrow-btn">
    <path fill="#fff" fill-opacity="0" d="M0 0h27v27H0z"/><path fill="none" d="M0 0h27v27H0z"/><path class="arrow-fill" d="M13.5 2.25C7.28 2.25 2.25 7.28 2.25 13.5c0 6.21 5.03 11.25 11.25 11.25 6.21 0 11.25-5.04 11.25-11.25 0-6.22-5.04-11.25-11.25-11.25m-.8 5.95c.21-.21.5-.33.8-.33.29 0 .58.12.79.33l4.5 4.5c.21.21.33.5.33.8 0 .29-.12.58-.33.79l-4.5 4.5c-.21.21-.5.32-.79.32-.3-.01-.58-.12-.79-.33s-.32-.49-.33-.79c0-.29.11-.58.32-.79l2.58-2.58H9a1.13 1.13 0 0 1-1.13-1.12c0-.3.12-.59.33-.8s.5-.33.8-.33h6.28L12.7 9.79c-.21-.21-.33-.5-.33-.79 0-.3.12-.59.33-.8"/>
  </symbol>

  <symbol id="accordion-2">
    <path fill="#fff" fill-opacity="0" d="M0 0h48v48H0z"/><path fill="none" d="M0 0h48v48H0z"/><path class="acccordeon2" d="M12.79 35.12c-3.29-3.23-5.3-7.41-5.76-11.92a12.4 12.4 0 0 0-2.69 7.76c0 1.85.41 3.67 1.2 5.34l-1.62 4.74a2.21 2.21 0 0 0 .53 2.3c.3.3.67.51 1.08.6.4.09.83.07 1.23-.07l4.73-1.62c1.66.79 3.5 1.2 5.34 1.21 2.9 0 5.66-.98 7.89-2.8-4.48-.4-8.67-2.33-11.93-5.54" opacity=".24"/><path class="acccordeon2" d="m44.29 35.57-2.36-6.87c1.14-2.34 1.73-4.91 1.74-7.51.01-4.53-1.74-8.81-4.93-12.05S31.31 4.07 26.78 4c-4.69-.08-9.1 1.71-12.41 5.02a17 17 0 0 0-3.79 5.7c-.86 2.13-1.28 4.42-1.24 6.72.07 4.52 1.9 8.77 5.14 11.96 3.24 3.18 7.51 4.93 12.02 4.93h.03c2.61-.01 5.18-.6 7.52-1.75l6.86 2.36a2.63 2.63 0 0 0 2.74-.63c.36-.35.6-.79.72-1.28.11-.48.08-.99-.08-1.46m-16.13-8.45H19.3c-.16 0-.32-.03-.47-.08a1.18 1.18 0 0 1-.68-.66c-.06-.15-.1-.31-.1-.47s.04-.32.1-.47.15-.29.27-.4.25-.2.41-.26c.15-.06.31-.09.47-.08h8.86c.32.01.62.14.84.36.21.23.34.53.34.85 0 .31-.13.62-.34.84-.22.23-.52.36-.84.37m5.55-4.98H19.3c-.32-.01-.61-.14-.83-.36a1.23 1.23 0 0 1-.35-.85c0-.31.13-.61.35-.84s.51-.36.83-.37h14.41a1.214 1.214 0 0 1 1.17 1.21c0 .32-.12.62-.34.85-.22.22-.52.35-.83.36m0-4.97H19.3a1.212 1.212 0 0 1-1.21-1.21c0-.32.13-.63.35-.86.23-.22.54-.35.86-.35h14.41a1.21 1.21 0 0 1 1.21 1.21c0 .32-.13.63-.36.85-.22.23-.53.36-.85.36"/>
  </symbol>

  <symbol id="accordion-3">
    <path fill="#fff" fill-opacity="0" d="M0 0h48v48H0z"/><path fill="none" d="M0 0h48v48H0z"/><path class="accordeon3" d="M24.03 16.37c-4.21 0-7.62 3.42-7.62 7.63 0 4.2 3.41 7.62 7.62 7.62 4.2 0 7.62-3.42 7.62-7.62 0-4.21-3.42-7.63-7.62-7.63m4.52 6.19-5.46 5.46c-.11.11-.24.2-.38.26-.14.05-.3.09-.45.09s-.31-.04-.45-.09c-.14-.06-.27-.15-.38-.26l-2.08-2.09c-.23-.22-.35-.51-.35-.83 0-.31.12-.6.35-.83.22-.22.51-.34.83-.34.31 0 .6.12.83.34l1.25 1.26 4.63-4.63a1.2 1.2 0 0 1 .83-.34q.24 0 .45.09a1.2 1.2 0 0 1 .64.63c.05.15.08.3.08.45 0 .16-.03.31-.08.45-.06.14-.15.27-.26.38"/><path class="accordeon3" d="M41.02 14.85v-.03c-.02-.39-.03-.79-.04-1.25a4.25 4.25 0 0 0-3.99-4.15c-4.6-.26-8.16-1.76-11.2-4.72l-.02-.02c-.48-.44-1.1-.68-1.74-.68-.65 0-1.27.24-1.74.68l-.03.02c-3.04 2.96-6.6 4.46-11.19 4.72-1.07.06-2.07.53-2.81 1.3s-1.17 1.79-1.19 2.85c0 .45-.02.86-.03 1.25l-.01.07c-.08 4.69-.19 10.52 1.76 15.82 1.07 2.92 2.7 5.45 4.83 7.53 2.43 2.37 5.61 4.25 9.46 5.59.3.11.62.16.95.17.32 0 .64-.06.95-.17 3.84-1.34 7.02-3.22 9.45-5.59 2.13-2.09 3.75-4.62 4.83-7.53 1.96-5.32 1.85-11.16 1.76-15.86M24.03 33.96c-5.5 0-9.97-4.47-9.97-9.96 0-5.5 4.47-9.97 9.97-9.97 5.49 0 9.96 4.47 9.96 9.97 0 5.49-4.47 9.96-9.96 9.96" opacity=".24"/>
  </symbol>

  <symbol id="accordion-4">
    <path fill="#fff" fill-opacity="0" d="M0 0h48v48H0z"/><path fill="none" d="M0 0h48v48H0z"/><path fill="#000" d="M34.16 24c0-.65.52-1.18 1.17-1.18h2.47c-.57-6.7-5.93-12.06-12.63-12.62v2.46c0 .31-.13.61-.35.83s-.51.34-.82.34c-.32 0-.61-.12-.83-.34s-.35-.52-.35-.83V10.2c-6.7.56-12.06 5.92-12.62 12.62h2.46c.31 0 .61.13.83.35s.34.51.34.83c0 .31-.12.6-.34.82s-.52.35-.83.35H10.2c.56 6.7 5.92 12.06 12.62 12.63v-2.47c0-.31.13-.61.35-.83s.51-.34.83-.34c.31 0 .6.12.82.34s.35.52.35.83v2.47c6.7-.57 12.06-5.93 12.63-12.63h-2.47q-.24 0-.45-.09c-.14-.06-.27-.15-.38-.26-.11-.1-.2-.23-.26-.38-.05-.14-.08-.29-.08-.44m-3.09-5.6-6.23 6.41c-.21.22-.5.34-.8.36-.3.01-.59-.1-.82-.29l-4.65-4.07c-.12-.1-.22-.23-.29-.36q-.105-.21-.12-.45c-.02-.15 0-.31.05-.46s.13-.28.23-.4.23-.21.37-.28q.21-.105.45-.12c.15-.01.31.02.45.07.15.05.28.13.4.23l3.82 3.34 5.46-5.61c.22-.22.51-.34.82-.34.31-.01.6.11.82.33.22.21.35.5.36.81s-.11.61-.32.83"/><path fill="#000" d="M24 4C12.97 4 4 12.97 4 24c0 11.02 8.97 20 20 20 11.02 0 20-8.98 20-20 0-11.03-8.98-20-20-20m0 36.19c-8.93 0-16.2-7.26-16.2-16.19 0-8.94 7.27-16.2 16.2-16.2S40.19 15.06 40.19 24c0 8.93-7.26 16.19-16.19 16.19" opacity=".24"/>
  </symbol>

  <symbol id="facebook">
  <path fill="#020203" d="M9.87 3.95c-.62-.12-1.46-.21-1.98-.21-1.44 0-1.53.61-1.53 1.61v1.79h3.57l-.31 3.67H6.36V22H1.87V10.81H-.45V7.12h2.32V4.85C1.87 1.74 3.33 0 7 0c1.28 0 2.22.18 3.44.43z"/>  
  </symbol>

  <symbol id="insta">
    <path fill="#020203" d="M10 1.79c2.67 0 2.99.02 4.04.06.97.04 1.5.21 1.86.35.47.17.8.4 1.14.75.36.34.58.67.75 1.15.15.35.31.87.35 1.85.05 1.05.06 1.38.06 4.05 0 2.66-.01 2.99-.06 4.04-.04.96-.21 1.5-.35 1.85-.17.48-.39.81-.75 1.15-.34.35-.67.58-1.14.75-.35.14-.88.31-1.86.35-1.05.04-1.37.06-4.04.06s-3-.02-4.04-.06c-.98-.04-1.5-.21-1.86-.35-.47-.17-.8-.4-1.15-.75-.35-.34-.56-.69-.75-1.15-.14-.35-.31-.87-.34-1.85-.05-1.05-.06-1.38-.06-4.04 0-2.67.01-3 .06-4.05.03-.98.21-1.5.34-1.85.18-.48.4-.81.75-1.15.35-.35.69-.56 1.15-.75.34-.14.88-.31 1.86-.35C7 1.81 7.33 1.79 10 1.79M10 0C7.28 0 6.94 0 5.88.06 4.82.1 4.09.27 3.45.52c-.67.25-1.22.6-1.78 1.14-.55.56-.9 1.11-1.15 1.77-.25.65-.41 1.36-.45 2.44C0 6.93 0 7.27 0 10c0 2.72 0 3.06.05 4.12.06 1.06.22 1.79.47 2.42.25.66.6 1.23 1.15 1.77.56.56 1.11.91 1.77 1.16.64.25 1.36.42 2.43.46 1.07.06 1.41.07 4.13.07s3.06-.01 4.12-.07c1.06-.04 1.79-.21 2.42-.45a5.1 5.1 0 0 0 1.78-1.15c.55-.56.89-1.11 1.14-1.77.25-.65.43-1.36.47-2.44.06-1.06.07-1.4.07-4.12 0-2.73-.01-3.07-.06-4.13s-.23-1.79-.46-2.42c-.27-.66-.61-1.23-1.15-1.77A4.9 4.9 0 0 0 16.56.52C15.92.27 15.2.1 14.13.06 13.06 0 12.72 0 10 0"/><path fill="#020203" d="M10.01 4.87c-2.84 0-5.14 2.29-5.14 5.14 0 2.84 2.3 5.13 5.14 5.13a5.13 5.13 0 0 0 5.14-5.13 5.145 5.145 0 0 0-5.14-5.14m0 8.47c-1.84 0-3.34-1.49-3.34-3.33 0-1.85 1.5-3.33 3.34-3.33s3.33 1.48 3.33 3.33c0 1.84-1.49 3.33-3.33 3.33M16.54 4.66c0 .65-.54 1.19-1.2 1.19s-1.2-.54-1.2-1.19c0-.66.54-1.21 1.2-1.21s1.2.55 1.2 1.21"/>  
  </symbol>
  
  <symbol id="linkedin">
    <path fill="#000" d="M4.34 1.97c0 1.07-.86 1.94-2.21 1.94C.82 3.91-.03 3.04 0 1.97-.03.85.82 0 2.16 0c1.32 0 2.15.85 2.18 1.97M.1 18V5.45h4.1V18zM7.48 9.45c0-1.55-.04-2.89-.1-4h3.56l.19 1.73h.08c.54-.8 1.89-2 4.07-2 2.7 0 4.72 1.69 4.72 5.38V18h-4.1v-6.95c0-1.62-.59-2.72-2.08-2.72-1.13 0-1.81.74-2.08 1.46-.11.26-.16.62-.16.97V18h-4.1z"/>  
  </symbol>

  <symbol id="logo">
    <path fill="#fff" fill-opacity="0" d="M0 0h33v56H0z"/><path fill="#fff" fill-opacity="0" d="M42 23h140v28H42z"/><path fill="none" d="M0 0h33v56H0z"/><path fill="#000" fill-rule="evenodd" d="M17.47 6.89c-2.08 4.11-2.2 8.83-.36 12.86-2.11-2.68-4.05-5.31-4.71-8.79-.58-2.94-.71-6.42.34-10.96-4.25 7.29-4.05 13.54-.5 18.56 3.6 5.08 9.34 8.41 16.99 11.86-.38-.35-.81-.73-1.28-1.14-2.11-1.85-5.04-4.42-7.5-8.86-2.02-3.66-2.74-7.71-2.98-13.53m-.97 18.88c-6.11-3.33-8.72-6.43-10.17-8.17l-.18-.21c-1.74 7.67 3.38 9.35 6.76 9.57-4.81 2.06-7.83 4.49-10.2 8.39C-.89 41.27-.13 46.28.62 48.87c.74 2.51 3.01 6.01 4.41 7.13-4.18-9.58-2.56-15.29.03-19.19 2.27-3.43 4.93-5.67 9.5-7.54.48-.2.99-.39 1.55-.6.07.04.16.08.25.12.1.05.21.1.33.16 3.44 1.59 7.43 3.26 10.35 4.47l.14.06-1.1 1.12c-.28.29-.68.42-1.07.35-1.5-.27-3.49-.32-4.45-.32-8.99 0-13.49 3.4-14.82 8.38-.86 3.25.28 6.64 2.16 8.89 2.35 2.82 6.19 4.08 9.86 4.08h7.11c-2.93-1.5-5.74-3.31-7.44-5.21-1.84-2.05-3.3-4.89-2.77-8.06.45-2.72 2.43-5.12 5.56-5.32h.35c.6 0 1.21.03 1.8.07h.04c1.18.1 2.36.29 3.42.57 1.09.28 2.24-.04 3.02-.85L33 32.93l-.7-.25c-.01 0-.19-.08-.51-.21-1.97-.82-9.23-3.83-13.94-6.02-.46-.21-.92-.45-1.35-.68"/><path fill="none" d="M42 23h140v28H42z"/><path fill="#000" d="M56.1 51c-4.06 0-7.42-1.34-10.1-4.02-2.67-2.7-4-6.03-4-9.98 0-3.96 1.33-7.28 4-9.96 2.68-2.7 6.04-4.04 10.1-4.04 2.44 0 4.69.57 6.75 1.73 2.08 1.16 3.7 2.73 4.85 4.71l-3.85 2.23c-.72-1.33-1.77-2.39-3.16-3.16q-2.04-1.2-4.59-1.2c-2.88 0-5.21.92-7.01 2.74-1.78 1.83-2.66 4.14-2.66 6.95 0 2.8.88 5.11 2.66 6.94 1.8 1.82 4.13 2.74 7.01 2.74 1.7 0 3.24-.39 4.63-1.16 1.39-.8 2.43-1.87 3.12-3.2l3.85 2.2c-1.13 1.98-2.73 3.56-4.81 4.74C60.83 50.42 58.57 51 56.1 51m30.24-19.79h4.17v19.28h-4.17v-2.77C84.78 49.9 82.53 51 79.6 51c-2.65 0-4.91-.98-6.79-2.94-1.87-1.98-2.81-4.38-2.81-7.21 0-2.85.94-5.26 2.81-7.21 1.88-1.95 4.14-2.93 6.79-2.93 2.93 0 5.18 1.08 6.74 3.24zM75.9 45.29c1.15 1.15 2.61 1.73 4.35 1.73 1.75 0 3.2-.58 4.36-1.73 1.15-1.19 1.73-2.66 1.73-4.44 0-1.77-.57-3.24-1.73-4.39-1.16-1.19-2.61-1.78-4.36-1.78-1.74 0-3.2.59-4.35 1.78-1.16 1.15-1.74 2.62-1.74 4.39 0 1.78.58 3.25 1.74 4.44m23.62-10.84c1.05-2.39 3.03-3.59 5.94-3.59v4.52c-1.6-.11-2.98.28-4.17 1.15-1.18.85-1.77 2.27-1.77 4.24v9.72h-4.16V31.21h4.16zm12.94-6.91c-.51.52-1.13.78-1.85.78s-1.35-.26-1.89-.77c-.51-.54-.77-1.17-.77-1.89s.26-1.34.77-1.86c.52-.54 1.15-.8 1.89-.8.75 0 1.38.26 1.89.8.52.52.77 1.14.77 1.86s-.27 1.34-.81 1.88m-3.93 22.95V31.21h4.17v19.28zm19.91-19.78c2.64 0 4.9.98 6.78 2.93s2.81 4.36 2.81 7.21c0 2.83-.93 5.23-2.81 7.21-1.87 1.96-4.14 2.94-6.78 2.94-2.93 0-5.18-1.1-6.75-3.28v2.77h-4.16V23.5h4.16v10.45q2.355-3.24 6.75-3.24m-5.01 14.58c1.15 1.15 2.6 1.73 4.35 1.73s3.2-.58 4.36-1.73c1.15-1.19 1.73-2.66 1.73-4.44 0-1.77-.58-3.24-1.73-4.39-1.16-1.19-2.61-1.78-4.36-1.78s-3.2.59-4.35 1.78c-1.16 1.15-1.74 2.62-1.74 4.39 0 1.78.58 3.25 1.74 4.44M150.9 51c-2.82 0-5.23-.98-7.2-2.94-1.98-1.95-2.97-4.35-2.97-7.21 0-2.85.99-5.26 2.97-7.21 1.97-1.95 4.38-2.93 7.2-2.93 2.86 0 5.26.98 7.21 2.93 1.98 1.95 2.97 4.36 2.97 7.21 0 2.86-.99 5.26-2.97 7.21-1.95 1.96-4.36 2.94-7.21 2.94m-4.28-5.79c1.16 1.16 2.59 1.74 4.28 1.74 1.7 0 3.13-.58 4.28-1.74 1.16-1.16 1.74-2.61 1.74-4.36s-.58-3.2-1.74-4.36c-1.15-1.15-2.58-1.73-4.28-1.73-1.69 0-3.12.58-4.28 1.73-1.15 1.16-1.73 2.61-1.73 4.36s.58 3.2 1.73 4.36m31.21-14H182v19.28h-4.17v-2.47C176.57 50 174.58 51 171.86 51c-2.21 0-4-.71-5.36-2.13q-2.04-2.115-2.04-5.82V31.21h4.16v11.42c0 1.44.39 2.54 1.16 3.31s1.82 1.16 3.16 1.16q2.19 0 3.54-1.35 1.35-1.395 1.35-4.2z"/>  
  </symbol>


  <symbol id="rating-star">
    <path fill="#fff" fill-opacity="0" d="M0 0h23v23H0z"/><path fill="none" d="M0 0h23v23H0z"/><path fill="#000" d="M10.4 1.55a1.183 1.183 0 0 1 2.23 0l2.42 6.13 6.28.53c1.08.09 1.51 1.51.69 2.25l-4.78 4.32 1.46 6.46c.25 1.1-.88 1.97-1.8 1.38l-5.39-3.46-5.38 3.46c-.92.6-2.06-.28-1.81-1.38l1.46-6.46L1 10.46c-.82-.74-.38-2.15.69-2.25l6.28-.53z"/>
  </symbol>

  <symbol id="slider-arrow-right">
    <path fill="#fff" fill-opacity="0" d="M0 0h94v21H0z"/><path fill="none" d="M0 0h94v21H0z"/><path fill="#000" d="M93.64 9.64 84.45.35a1.23 1.23 0 0 0-.84-.36 1.23 1.23 0 0 0-.84.36c-.23.23-.35.53-.35.85s.12.63.35.85l7.16 7.24H1.19C.53 9.29 0 9.84 0 10.51s.53 1.21 1.19 1.21h88.74l-7.16 7.22c-.23.23-.35.53-.35.85s.12.63.35.85c.23.24.53.36.85.36.31 0 .61-.12.84-.36l9.19-9.3c.22-.23.35-.53.34-.85 0-.32-.12-.62-.35-.85"/>
  </symbol>

  <symbol id="stories-pin-icon">
    <path fill="#fff" fill-opacity="0" d="M0 0h27v20H0z"/><path fill="none" d="M0 0h27v20H0z"/><path fill="#000" fill-rule="evenodd" d="m13.5 18.57-.87.77h-.01l-.03-.01c-.15-.07-.3-.14-.45-.22-1.81-.88-3.48-1.86-5.01-2.93-2.69-1.89-5.63-4.65-5.63-7.75 0-2.09 1.24-4.11 3.48-5.61 1.1-.74 2.41-1.33 3.88-1.73C10.32.68 11.9.47 13.5.47c1.59 0 3.17.21 4.63.62 1.47.4 2.78.99 3.88 1.73 2.25 1.52 3.5 3.53 3.48 5.61 0 3.1-2.94 5.86-5.63 7.75a37 37 0 0 1-5.36 3.1c-.04.02-.07.03-.1.05l-.03.01h-.01l-.86-.78zm0 0 .86.77c-.26.12-.56.18-.86.18-.31 0-.61-.06-.87-.18zM7.49 8.09c-.01-.51.13-1.01.43-1.48.29-.47.73-.9 1.29-1.26s1.23-.65 1.96-.85c.74-.19 1.53-.29 2.32-.29.8 0 1.59.1 2.33.29.73.2 1.4.49 1.96.85s1 .79 1.29 1.26c.3.47.44.97.42 1.48-.03 1-.67 1.95-1.79 2.65-1.13.7-2.63 1.09-4.21 1.09-1.57 0-3.08-.39-4.2-1.09s-1.77-1.65-1.8-2.65"/>
  </symbol>

  <symbol id="ticker-check">
   <svg width="27" height="27" fill="#000" xmlns="http://www.w3.org/2000/svg"><defs><clipPath id="a"><path fill="#fff" fill-opacity="0" d="M0 0h27v27H0z"/></clipPath></defs><path fill="none" d="M0 0h27v27H0z"/><g clip-path="url(#a)" fill-rule="evenodd"><path d="M13.5 0C20.95 0 27 6.04 27 13.5 27 20.95 20.95 27 13.5 27 6.04 27 0 20.95 0 13.5 0 6.04 6.04 0 13.5 0Z" fill="#000"/><path d="M20.76 7.83c.4.36.44.98.09 1.39l-8.3 9.84c-.08.1-.18.18-.29.24a.88.88 0 0 1-.36.1.947.947 0 0 1-.37-.05c-.12-.04-.22-.11-.32-.19l-4.98-4.47c-.19-.18-.31-.42-.33-.68-.01-.26.07-.51.23-.71.08-.1.18-.18.29-.24a.925.925 0 0 1 .73-.05c.12.04.23.1.32.19l4.27 3.83 7.68-9.1c.08-.1.18-.18.3-.24a.899.899 0 0 1 .72-.05c.12.04.23.11.32.19Z" fill="#FFF"/></g></svg>
  </symbol>

  <symbol id="ticker-question-icon">
    <path fill="#fff" fill-opacity="0" d="M0 0h20v20H0z"/><path fill="none" d="M0 0h20v20H0z"/><path d="M10.22 3.33c-1.77 0-3.47.7-4.72 1.95a6.675 6.675 0 0 0 0 9.43 6.675 6.675 0 0 0 9.43 0 6.675 6.675 0 0 0 0-9.43 6.65 6.65 0 0 0-4.71-1.95M1.88 10c0-4.61 3.74-8.34 8.34-8.34s8.33 3.73 8.33 8.34c0 4.6-3.73 8.33-8.33 8.33S1.88 14.6 1.88 10"/><path d="M8.84 11.51h1.88v-.19c0-.63.3-.95.88-1.29.78-.45 1.31-1.01 1.31-1.97 0-1.49-1.26-2.23-2.97-2.23-1.55 0-2.85.73-2.86 2.46h2.04c0-.45.37-.77.8-.77.4 0 .72.27.72.66 0 .45-.38.72-.89 1.05-.6.38-.91.79-.91 2.09zm.97 2.65c.59 0 1.11-.49 1.12-1.1-.01-.61-.53-1.1-1.12-1.1-.62 0-1.13.49-1.12 1.1-.01.61.5 1.1 1.12 1.1"/>  
  </symbol>

  <symbol id="xx">
    <path fill="#000" fill-rule="evenodd" d="M20 1.89c-.74.31-1.54.54-2.36.63.85-.5 1.5-1.28 1.8-2.23-.79.46-1.67.81-2.61.98C16.09.49 15.03 0 13.85 0c-2.27 0-4.1 1.81-4.1 4.04 0 .31.04.62.1.91C6.45 4.79 3.43 3.18 1.4.74c-.36.59-.57 1.28-.57 2.03 0 1.39.73 2.64 1.84 3.35C2 6.1 1.36 5.93.8 5.62v.04c0 1.96 1.43 3.59 3.3 3.96-.34.1-.71.15-1.08.15-.26 0-.52-.03-.77-.07.52 1.59 2.04 2.77 3.83 2.8a8.35 8.35 0 0 1-5.1 1.74c-.33 0-.66-.02-.98-.06C1.82 15.33 3.97 16 6.29 16c7.55 0 11.66-6.15 11.66-11.5v-.51c.8-.58 1.5-1.29 2.05-2.1"/>  
  </symbol>

</svg>
